<svg xmlns="http://www.w3.org/2000/svg" viewBox="0 0 128 128">
<defs>
 <linearGradient id="g" x1="0" y1="0" x2="1" y2="1"><stop offset="0" stop-color="#f7d97a"/><stop offset="1" stop-color="#f2994a"/></linearGradient>
 <linearGradient id="fold" x1="0" y1="0" x2="1" y2="1"><stop offset="0" stop-color="#fff1bd"/><stop offset="1" stop-color="#e6b23c"/></linearGradient>
 <linearGradient id="bg" x1="0" y1="0" x2="0" y2="1"><stop offset="0" stop-color="#26282e"/><stop offset="1" stop-color="#151619"/></linearGradient>
</defs>
<rect x="4" y="4" width="120" height="120" rx="30" fill="url(#bg)"/>
<g transform="rotate(-6 64 64)">
 <path d="M36 30h56a6 6 0 0 1 6 6v40L76 98H36a6 6 0 0 1-6-6V36a6 6 0 0 1 6-6z" fill="url(#g)"/>
 <path d="M98 76 76 98V82a6 6 0 0 1 6-6z" fill="url(#fold)"/>
 <path d="M46 50h36M46 64h26M46 78h18" stroke="#3b2a06" stroke-opacity="0.5" stroke-width="6" stroke-linecap="round"/>
</g>
</svg>
